  0
SECTION
  2
HEADER
  9
$ACADVER
  1
AC1009
  9
$FILLMODE
 70
0
  9
$EXTMIN
 10
-55.1250
 20
-33.9250
 30
0.0000
  9
$EXTMAX
 10
45.5119
 20
39.4400
 30
0.0000
  0
ENDSEC
  0
SECTION
  2
TABLES
  0
TABLE
  2
LTYPE
 70
1
  0
LTYPE
  2
CONTINUOUS
 70
64
  3
Solid line
 72
65
 73
0
 40
0
  0
ENDTAB
  0
TABLE
  2
LAYER
 70
255
  0
LAYER
  2
20
 70
64
 62
7
  6
CONTINUOUS
  0
LAYER
  2
29
 70
64
 62
2
  6
CONTINUOUS
  0
ENDTAB
  0
ENDSEC
  0
SECTION
  2
BLOCKS
  0
BLOCK
  8
0
  2
RECT
 70
64
 10
0.0000
 20
0.0000
 30
0.0000
  3
RECT
  0
SOLID
  8
0
 10
-0.5000
 20
-0.5000
 30
0.0000
 11
0.5000
 21
-0.5000
 31
0.0000
 12
-0.5000
 22
0.5000
 32
0.0000
 13
0.5000
 23
0.5000
 33
0.0000
  0
ENDBLK
  8
0
  0
BLOCK
  8
0
  2
PIE
 70
64
 10
0.0000
 20
0.0000
 30
0.0000
  3
PIE
  0
CIRCLE
  8
0
 10
0.0000
 20
0.0000
 30
0.0000
 40
0.5000
  0
ENDBLK
  8
0
  0
BLOCK
  8
0
  2
OCTAGONP
 70
64
 10
0.0000
 20
0.0000
 30
0.0000
  3
OCTAGONP
  0
POLYLINE
  8
0
 66
1
 10
0.0000
 20
0.0000
 30
0.0000
 40
0.0000
 41
0.0000
 70
1
  0
VERTEX
  8
0
 10
-0.5000
 20
-0.2071
 30
0.0000
  0
VERTEX
  8
0
 10
-0.5000
 20
0.2071
 30
0.0000
  0
VERTEX
  8
0
 10
-0.2071
 20
0.5000
 30
0.0000
  0
VERTEX
  8
0
 10
0.2071
 20
0.5000
 30
0.0000
  0
VERTEX
  8
0
 10
0.5000
 20
0.2071
 30
0.0000
  0
VERTEX
  8
0
 10
0.5000
 20
-0.2071
 30
0.0000
  0
VERTEX
  8
0
 10
0.2071
 20
-0.5000
 30
0.0000
  0
VERTEX
  8
0
 10
-0.2071
 20
-0.5000
 30
0.0000
  0
SEQEND
  8
0
  0
ENDBLK
  8
0
  0
BLOCK
  8
0
  2
SQUAREP
 70
64
 10
0.0000
 20
0.0000
 30
0.0000
  3
SQUAREP
  0
SOLID
  8
0
 10
-0.5000
 20
-0.5000
 30
0.0000
 11
0.5000
 21
-0.5000
 31
0.0000
 12
-0.5000
 22
0.5000
 32
0.0000
 13
0.5000
 23
0.5000
 33
0.0000
  0
ENDBLK
  8
0
  0
BLOCK
  8
0
  2
ROUNDP
 70
64
 10
0.0000
 20
0.0000
 30
0.0000
  3
ROUNDP
  0
CIRCLE
  8
0
 10
0.0000
 20
0.0000
 30
0.0000
 40
0.5000
  0
ENDBLK
  8
0
  0
BLOCK
  8
0
  2
ANNULUSP
 70
64
 10
0.0000
 20
0.0000
 30
0.0000
  3
ANNULUSP
  0
CIRCLE
  8
0
 10
0.0000
 20
0.0000
 30
0.0000
 40
0.5000
  0
ENDBLK
  8
0
  0
BLOCK
  8
0
  2
THERMALP
 70
64
 10
0.0000
 20
0.0000
 30
0.0000
  3
THERMALP
  0
LINE
  8
0
 10
-0.2379
 20
0.4500
 30
0.0000
 11
0.2379
 21
0.4500
 31
0.0000
  0
LINE
  8
0
 10
0.4500
 20
0.2379
 30
0.0000
 11
0.4500
 21
-0.2379
 31
0.0000
  0
LINE
  8
0
 10
0.2379
 20
-0.4500
 30
0.0000
 11
-0.2379
 21
-0.4500
 31
0.0000
  0
LINE
  8
0
 10
-0.4500
 20
-0.2379
 30
0.0000
 11
-0.4500
 21
0.2379
 31
0.0000
  0
ENDBLK
  8
0
  0
BLOCK
  8
0
  2
OCTAGONV
 70
64
 10
0.0000
 20
0.0000
 30
0.0000
  3
OCTAGONV
  0
POLYLINE
  8
0
 66
1
 10
0.0000
 20
0.0000
 30
0.0000
 40
0.0000
 41
0.0000
 70
1
  0
VERTEX
  8
0
 10
-0.5000
 20
-0.2071
 30
0.0000
  0
VERTEX
  8
0
 10
-0.5000
 20
0.2071
 30
0.0000
  0
VERTEX
  8
0
 10
-0.2071
 20
0.5000
 30
0.0000
  0
VERTEX
  8
0
 10
0.2071
 20
0.5000
 30
0.0000
  0
VERTEX
  8
0
 10
0.5000
 20
0.2071
 30
0.0000
  0
VERTEX
  8
0
 10
0.5000
 20
-0.2071
 30
0.0000
  0
VERTEX
  8
0
 10
0.2071
 20
-0.5000
 30
0.0000
  0
VERTEX
  8
0
 10
-0.2071
 20
-0.5000
 30
0.0000
  0
SEQEND
  8
0
  0
ENDBLK
  8
0
  0
BLOCK
  8
0
  2
SQUAREV
 70
64
 10
0.0000
 20
0.0000
 30
0.0000
  3
SQUAREV
  0
SOLID
  8
0
 10
-0.5000
 20
-0.5000
 30
0.0000
 11
0.5000
 21
-0.5000
 31
0.0000
 12
-0.5000
 22
0.5000
 32
0.0000
 13
0.5000
 23
0.5000
 33
0.0000
  0
ENDBLK
  8
0
  0
BLOCK
  8
0
  2
ROUNDV
 70
64
 10
0.0000
 20
0.0000
 30
0.0000
  3
ROUNDV
  0
CIRCLE
  8
0
 10
0.0000
 20
0.0000
 30
0.0000
 40
0.5000
  0
ENDBLK
  8
0
  0
BLOCK
  8
0
  2
ANNULUSV
 70
64
 10
0.0000
 20
0.0000
 30
0.0000
  3
ANNULUSV
  0
CIRCLE
  8
0
 10
0.0000
 20
0.0000
 30
0.0000
 40
0.5000
  0
ENDBLK
  8
0
  0
BLOCK
  8
0
  2
THERMALV
 70
64
 10
0.0000
 20
0.0000
 30
0.0000
  3
THERMALV
  0
LINE
  8
0
 10
-0.2379
 20
0.4500
 30
0.0000
 11
0.2379
 21
0.4500
 31
0.0000
  0
LINE
  8
0
 10
0.4500
 20
0.2379
 30
0.0000
 11
0.4500
 21
-0.2379
 31
0.0000
  0
LINE
  8
0
 10
0.2379
 20
-0.4500
 30
0.0000
 11
-0.2379
 21
-0.4500
 31
0.0000
  0
LINE
  8
0
 10
-0.4500
 20
-0.2379
 30
0.0000
 11
-0.4500
 21
0.2379
 31
0.0000
  0
ENDBLK
  8
0
  0
BLOCK
  8
0
  2
RECT1624000X1624000R28
 70
64
 10
0.0000
 20
0.0000
 30
0.0000
  3
RECT1624000X1624000R28
  0
POLYLINE
  8
0
 66
1
 10
0.0000
 20
0.0000
 30
0.0000
 40
0.0000
 41
0.0000
 70
1
  0
VERTEX
  8
0
 10
5.0750
 20
-3.6540
 30
0.0000
  0
VERTEX
  8
0
 10
5.0750
 20
3.6540
 30
0.0000
 42
0.4142
  0
VERTEX
  8
0
 10
3.6540
 20
5.0750
 30
0.0000
  0
VERTEX
  8
0
 10
-3.6540
 20
5.0750
 30
0.0000
 42
0.4142
  0
VERTEX
  8
0
 10
-5.0750
 20
3.6540
 30
0.0000
  0
VERTEX
  8
0
 10
-5.0750
 20
-3.6540
 30
0.0000
 42
0.4142
  0
VERTEX
  8
0
 10
-3.6540
 20
-5.0750
 30
0.0000
  0
VERTEX
  8
0
 10
3.6540
 20
-5.0750
 30
0.0000
 42
0.4142
  0
SEQEND
  8
0
  0
ENDBLK
  8
0
  0
BLOCK
  8
0
  2
RECT344000X120000R100
 70
64
 10
0.0000
 20
0.0000
 30
0.0000
  3
RECT344000X120000R100
  0
POLYLINE
  8
0
 66
1
 10
0.0000
 20
0.0000
 30
0.0000
 40
0.0000
 41
0.0000
 70
1
  0
VERTEX
  8
0
 10
1.0750
 20
0.0000
 30
0.0000
  0
VERTEX
  8
0
 10
1.0750
 20
0.0000
 30
0.0000
 42
0.4142
  0
VERTEX
  8
0
 10
0.7000
 20
0.3750
 30
0.0000
  0
VERTEX
  8
0
 10
-0.7000
 20
0.3750
 30
0.0000
 42
0.4142
  0
VERTEX
  8
0
 10
-1.0750
 20
0.0000
 30
0.0000
  0
VERTEX
  8
0
 10
-1.0750
 20
0.0000
 30
0.0000
 42
0.4142
  0
VERTEX
  8
0
 10
-0.7000
 20
-0.3750
 30
0.0000
  0
VERTEX
  8
0
 10
0.7000
 20
-0.3750
 30
0.0000
 42
0.4142
  0
SEQEND
  8
0
  0
ENDBLK
  8
0
  0
BLOCK
  8
0
  2
RECT264000X88000R100
 70
64
 10
0.0000
 20
0.0000
 30
0.0000
  3
RECT264000X88000R100
  0
POLYLINE
  8
0
 66
1
 10
0.0000
 20
0.0000
 30
0.0000
 40
0.0000
 41
0.0000
 70
1
  0
VERTEX
  8
0
 10
0.8250
 20
0.0000
 30
0.0000
  0
VERTEX
  8
0
 10
0.8250
 20
0.0000
 30
0.0000
 42
0.4142
  0
VERTEX
  8
0
 10
0.5500
 20
0.2750
 30
0.0000
  0
VERTEX
  8
0
 10
-0.5500
 20
0.2750
 30
0.0000
 42
0.4142
  0
VERTEX
  8
0
 10
-0.8250
 20
0.0000
 30
0.0000
  0
VERTEX
  8
0
 10
-0.8250
 20
0.0000
 30
0.0000
 42
0.4142
  0
VERTEX
  8
0
 10
-0.5500
 20
-0.2750
 30
0.0000
  0
VERTEX
  8
0
 10
0.5500
 20
-0.2750
 30
0.0000
 42
0.4142
  0
SEQEND
  8
0
  0
ENDBLK
  8
0
  0
BLOCK
  8
0
  2
RECT120000X584000R20
 70
64
 10
0.0000
 20
0.0000
 30
0.0000
  3
RECT120000X584000R20
  0
POLYLINE
  8
0
 66
1
 10
0.0000
 20
0.0000
 30
0.0000
 40
0.0000
 41
0.0000
 70
1
  0
VERTEX
  8
0
 10
0.3750
 20
-1.7500
 30
0.0000
  0
VERTEX
  8
0
 10
0.3750
 20
1.7500
 30
0.0000
 42
0.4142
  0
VERTEX
  8
0
 10
0.3000
 20
1.8250
 30
0.0000
  0
VERTEX
  8
0
 10
-0.3000
 20
1.8250
 30
0.0000
 42
0.4142
  0
VERTEX
  8
0
 10
-0.3750
 20
1.7500
 30
0.0000
  0
VERTEX
  8
0
 10
-0.3750
 20
-1.7500
 30
0.0000
 42
0.4142
  0
VERTEX
  8
0
 10
-0.3000
 20
-1.8250
 30
0.0000
  0
VERTEX
  8
0
 10
0.3000
 20
-1.8250
 30
0.0000
 42
0.4142
  0
SEQEND
  8
0
  0
ENDBLK
  8
0
  0
ENDSEC
  0
SECTION
  2
ENTITIES
  0
LINE
  8
20
 10
-38.4000
 20
18.0000
 30
0.0000
 11
-38.4000
 21
10.8000
 31
0.0000
  0
LINE
  8
20
 10
-38.4000
 20
10.8000
 30
0.0000
 11
-36.2000
 21
10.8000
 31
0.0000
  0
LINE
  8
20
 10
-36.2000
 20
10.8000
 30
0.0000
 11
-36.2000
 21
-10.8000
 31
0.0000
  0
LINE
  8
20
 10
-36.2000
 20
-10.8000
 30
0.0000
 11
-38.4000
 21
-10.8000
 31
0.0000
  0
LINE
  8
20
 10
-38.4000
 20
-10.8000
 30
0.0000
 11
-38.4000
 21
-18.0000
 31
0.0000
  0
LINE
  8
20
 10
-38.4000
 20
-18.0000
 30
0.0000
 11
23.0000
 21
-18.0000
 31
0.0000
  0
LINE
  8
29
 10
-17.4000
 20
-14.7000
 30
0.0000
 11
-11.9000
 21
-14.7000
 31
0.0000
  0
LINE
  8
20
 10
-38.4000
 20
18.0000
 30
0.0000
 11
23.0000
 21
18.0000
 31
0.0000
  0
LINE
  8
20
 10
23.0000
 20
18.0000
 30
0.0000
 11
23.0000
 21
8.4000
 31
0.0000
  0
ARC
  8
20
 10
24.0000
 20
8.4000
 30
0.0000
 40
1.0000
 50
180.0000
 51
270.0000
  0
LINE
  8
20
 10
24.0000
 20
7.4000
 30
0.0000
 11
30.0000
 21
7.4000
 31
0.0000
  0
LINE
  8
20
 10
30.0000
 20
-7.4000
 30
0.0000
 11
24.0000
 21
-7.4000
 31
0.0000
  0
ARC
  8
20
 10
24.0000
 20
-8.4000
 30
0.0000
 40
1.0000
 50
90.0000
 51
180.0000
  0
LINE
  8
20
 10
23.0000
 20
-8.4000
 30
0.0000
 11
23.0000
 21
-18.0000
 31
0.0000
  0
LINE
  8
20
 10
-11.9000
 20
-14.7000
 30
0.0000
 11
-17.4000
 21
-14.7000
 31
0.0000
  0
LINE
  8
20
 10
-11.9000
 20
14.7000
 30
0.0000
 11
-17.4000
 21
14.7000
 31
0.0000
  0
LINE
  8
29
 10
-17.4000
 20
14.7000
 30
0.0000
 11
-11.9000
 21
14.7000
 31
0.0000
  0
LINE
  8
20
 10
30.0000
 20
7.4000
 30
0.0000
 11
30.0000
 21
0.8000
 31
0.0000
  0
LINE
  8
20
 10
30.0000
 20
0.8000
 30
0.0000
 11
24.0000
 21
0.8000
 31
0.0000
  0
ARC
  8
20
 10
24.0000
 20
-0.2000
 30
0.0000
 40
1.0000
 50
90.0000
 51
180.0000
  0
LINE
  8
20
 10
23.0000
 20
-0.2000
 30
0.0000
 11
23.0000
 21
-0.6000
 31
0.0000
  0
ARC
  8
20
 10
24.0000
 20
-0.6000
 30
0.0000
 40
1.0000
 50
180.0000
 51
270.0000
  0
LINE
  8
20
 10
24.0000
 20
-1.6000
 30
0.0000
 11
30.0000
 21
-1.6000
 31
0.0000
  0
LINE
  8
20
 10
30.0000
 20
-1.6000
 30
0.0000
 11
30.0000
 21
-7.4000
 31
0.0000
  0
CIRCLE
  8
29
 10
-33.9000
 20
14.7000
 30
0.0000
 40
2.0000
  0
CIRCLE
  8
29
 10
-33.9000
 20
-14.7000
 30
0.0000
 40
2.0000
  0
CIRCLE
  8
29
 10
-8.5000
 20
8.5000
 30
0.0000
 40
2.0000
  0
CIRCLE
  8
29
 10
-8.5000
 20
-8.5000
 30
0.0000
 40
2.0000
  0
CIRCLE
  8
29
 10
8.5000
 20
-8.5000
 30
0.0000
 40
2.0000
  0
INSERT
  8
29
  2
RECT
 10
14.8800
 20
5.9725
 30
0.0000
 41
1.7200
 42
0.6050
 43
1.0000
 50
0.0000
  0
INSERT
  8
29
  2
RECT
 10
14.8850
 20
-5.9750
 30
0.0000
 41
1.7200
 42
0.6000
 43
1.0000
 50
0.0000
  0
INSERT
  8
29
  2
RECT1624000X1624000R28
 10
0.0000
 20
0.0000
 30
0.0000
 41
1.0000
 42
1.0000
 43
1.0000
 50
0.0000
  0
INSERT
  8
29
  2
RECT344000X120000R100
 10
6.0500
 20
-5.5000
 30
0.0000
 41
1.0000
 42
1.0000
 43
1.0000
 50
345.0000
  0
INSERT
  8
29
  2
RECT264000X88000R100
 10
0.8000
 20
6.2000
 30
0.0000
 41
1.0000
 42
1.0000
 43
1.0000
 50
267.0000
  0
INSERT
  8
29
  2
RECT264000X88000R100
 10
0.8000
 20
-6.2000
 30
0.0000
 41
1.0000
 42
1.0000
 43
1.0000
 50
93.0000
  0
INSERT
  8
29
  2
RECT264000X88000R100
 10
-6.2000
 20
4.0000
 30
0.0000
 41
1.0000
 42
1.0000
 43
1.0000
 50
345.0000
  0
INSERT
  8
29
  2
RECT264000X88000R100
 10
-6.2000
 20
2.4000
 30
0.0000
 41
1.0000
 42
1.0000
 43
1.0000
 50
351.0000
  0
INSERT
  8
29
  2
RECT264000X88000R100
 10
-6.2000
 20
0.8000
 30
0.0000
 41
1.0000
 42
1.0000
 43
1.0000
 50
357.0000
  0
INSERT
  8
29
  2
RECT264000X88000R100
 10
-6.2000
 20
-0.8000
 30
0.0000
 41
1.0000
 42
1.0000
 43
1.0000
 50
3.0000
  0
INSERT
  8
29
  2
RECT264000X88000R100
 10
-6.2000
 20
-2.4000
 30
0.0000
 41
1.0000
 42
1.0000
 43
1.0000
 50
9.0000
  0
INSERT
  8
29
  2
RECT264000X88000R100
 10
-6.2000
 20
-4.0000
 30
0.0000
 41
1.0000
 42
1.0000
 43
1.0000
 50
15.0000
  0
INSERT
  8
29
  2
RECT264000X88000R100
 10
6.2000
 20
4.0000
 30
0.0000
 41
1.0000
 42
1.0000
 43
1.0000
 50
15.0000
  0
INSERT
  8
29
  2
RECT264000X88000R100
 10
6.2000
 20
2.4000
 30
0.0000
 41
1.0000
 42
1.0000
 43
1.0000
 50
9.0000
  0
INSERT
  8
29
  2
RECT264000X88000R100
 10
6.2000
 20
0.8000
 30
0.0000
 41
1.0000
 42
1.0000
 43
1.0000
 50
3.0000
  0
INSERT
  8
29
  2
RECT264000X88000R100
 10
6.2000
 20
-0.8000
 30
0.0000
 41
1.0000
 42
1.0000
 43
1.0000
 50
357.0000
  0
INSERT
  8
29
  2
RECT264000X88000R100
 10
6.2000
 20
-2.4000
 30
0.0000
 41
1.0000
 42
1.0000
 43
1.0000
 50
351.0000
  0
INSERT
  8
29
  2
RECT264000X88000R100
 10
6.2000
 20
-4.0000
 30
0.0000
 41
1.0000
 42
1.0000
 43
1.0000
 50
345.0000
  0
INSERT
  8
29
  2
RECT264000X88000R100
 10
-4.0000
 20
6.2000
 30
0.0000
 41
1.0000
 42
1.0000
 43
1.0000
 50
105.0000
  0
INSERT
  8
29
  2
RECT264000X88000R100
 10
-2.4000
 20
6.2000
 30
0.0000
 41
1.0000
 42
1.0000
 43
1.0000
 50
99.0000
  0
INSERT
  8
29
  2
RECT264000X88000R100
 10
-0.8000
 20
6.2000
 30
0.0000
 41
1.0000
 42
1.0000
 43
1.0000
 50
93.0000
  0
INSERT
  8
29
  2
RECT264000X88000R100
 10
2.4000
 20
6.2000
 30
0.0000
 41
1.0000
 42
1.0000
 43
1.0000
 50
81.0000
  0
INSERT
  8
29
  2
RECT264000X88000R100
 10
4.0000
 20
6.2000
 30
0.0000
 41
1.0000
 42
1.0000
 43
1.0000
 50
75.0000
  0
INSERT
  8
29
  2
RECT264000X88000R100
 10
-4.0000
 20
-6.2000
 30
0.0000
 41
1.0000
 42
1.0000
 43
1.0000
 50
75.0000
  0
INSERT
  8
29
  2
RECT264000X88000R100
 10
-2.4000
 20
-6.2000
 30
0.0000
 41
1.0000
 42
1.0000
 43
1.0000
 50
81.0000
  0
INSERT
  8
29
  2
RECT264000X88000R100
 10
-0.8000
 20
-6.2000
 30
0.0000
 41
1.0000
 42
1.0000
 43
1.0000
 50
87.0000
  0
INSERT
  8
29
  2
RECT264000X88000R100
 10
2.4000
 20
-6.2000
 30
0.0000
 41
1.0000
 42
1.0000
 43
1.0000
 50
99.0000
  0
INSERT
  8
29
  2
RECT264000X88000R100
 10
4.0000
 20
-6.2000
 30
0.0000
 41
1.0000
 42
1.0000
 43
1.0000
 50
105.0000
  0
INSERT
  8
29
  2
RECT344000X120000R100
 10
6.0500
 20
5.5000
 30
0.0000
 41
1.0000
 42
1.0000
 43
1.0000
 50
15.0000
  0
INSERT
  8
29
  2
OCTAGONP
 10
-25.6850
 20
10.1600
 30
0.0000
 41
1.2580
 42
1.2580
 43
1.0000
 50
90.0000
  0
INSERT
  8
29
  2
OCTAGONP
 10
-28.2250
 20
8.8900
 30
0.0000
 41
1.2580
 42
1.2580
 43
1.0000
 50
90.0000
  0
INSERT
  8
29
  2
OCTAGONP
 10
-28.2250
 20
6.3500
 30
0.0000
 41
1.2580
 42
1.2580
 43
1.0000
 50
90.0000
  0
INSERT
  8
29
  2
OCTAGONP
 10
-28.2250
 20
3.8100
 30
0.0000
 41
1.2580
 42
1.2580
 43
1.0000
 50
90.0000
  0
INSERT
  8
29
  2
OCTAGONP
 10
-25.6850
 20
2.5400
 30
0.0000
 41
1.2580
 42
1.2580
 43
1.0000
 50
90.0000
  0
INSERT
  8
29
  2
OCTAGONP
 10
-28.2250
 20
1.2700
 30
0.0000
 41
1.2580
 42
1.2580
 43
1.0000
 50
90.0000
  0
INSERT
  8
29
  2
OCTAGONP
 10
-25.6850
 20
0.0000
 30
0.0000
 41
1.2580
 42
1.2580
 43
1.0000
 50
90.0000
  0
INSERT
  8
29
  2
OCTAGONP
 10
-28.2250
 20
-1.2700
 30
0.0000
 41
1.2580
 42
1.2580
 43
1.0000
 50
90.0000
  0
INSERT
  8
29
  2
OCTAGONP
 10
-25.6850
 20
-2.5400
 30
0.0000
 41
1.2580
 42
1.2580
 43
1.0000
 50
90.0000
  0
INSERT
  8
29
  2
OCTAGONP
 10
-28.2250
 20
-3.8100
 30
0.0000
 41
1.2580
 42
1.2580
 43
1.0000
 50
90.0000
  0
INSERT
  8
29
  2
OCTAGONP
 10
-28.2250
 20
-6.3500
 30
0.0000
 41
1.2580
 42
1.2580
 43
1.0000
 50
90.0000
  0
INSERT
  8
29
  2
OCTAGONP
 10
-28.2250
 20
-8.8900
 30
0.0000
 41
1.2580
 42
1.2580
 43
1.0000
 50
90.0000
  0
INSERT
  8
29
  2
OCTAGONP
 10
-25.6850
 20
-10.1600
 30
0.0000
 41
1.2580
 42
1.2580
 43
1.0000
 50
90.0000
  0
INSERT
  8
29
  2
OCTAGONP
 10
-23.1450
 20
8.8900
 30
0.0000
 41
1.2580
 42
1.2580
 43
1.0000
 50
90.0000
  0
INSERT
  8
29
  2
OCTAGONP
 10
-25.6850
 20
7.6200
 30
0.0000
 41
1.2580
 42
1.2580
 43
1.0000
 50
90.0000
  0
INSERT
  8
29
  2
OCTAGONP
 10
-23.1450
 20
6.3500
 30
0.0000
 41
1.2580
 42
1.2580
 43
1.0000
 50
90.0000
  0
INSERT
  8
29
  2
OCTAGONP
 10
-25.6850
 20
5.0800
 30
0.0000
 41
1.2580
 42
1.2580
 43
1.0000
 50
90.0000
  0
INSERT
  8
29
  2
OCTAGONP
 10
-23.1450
 20
3.8100
 30
0.0000
 41
1.2580
 42
1.2580
 43
1.0000
 50
90.0000
  0
INSERT
  8
29
  2
OCTAGONP
 10
-23.1450
 20
1.2700
 30
0.0000
 41
1.2580
 42
1.2580
 43
1.0000
 50
90.0000
  0
INSERT
  8
29
  2
OCTAGONP
 10
-23.1450
 20
-1.2700
 30
0.0000
 41
1.2580
 42
1.2580
 43
1.0000
 50
90.0000
  0
INSERT
  8
29
  2
OCTAGONP
 10
-23.1450
 20
-3.8100
 30
0.0000
 41
1.2580
 42
1.2580
 43
1.0000
 50
90.0000
  0
INSERT
  8
29
  2
OCTAGONP
 10
-25.6850
 20
-5.0800
 30
0.0000
 41
1.2580
 42
1.2580
 43
1.0000
 50
90.0000
  0
INSERT
  8
29
  2
OCTAGONP
 10
-23.1450
 20
-6.3500
 30
0.0000
 41
1.2580
 42
1.2580
 43
1.0000
 50
90.0000
  0
INSERT
  8
29
  2
OCTAGONP
 10
-25.6850
 20
-7.6200
 30
0.0000
 41
1.2580
 42
1.2580
 43
1.0000
 50
90.0000
  0
INSERT
  8
29
  2
OCTAGONP
 10
-23.1450
 20
-8.8900
 30
0.0000
 41
1.2580
 42
1.2580
 43
1.0000
 50
90.0000
  0
LINE
  8
29
 10
30.2000
 20
7.7900
 30
0.0000
 11
30.1750
 21
-7.7000
 31
0.0000
  0
LINE
  8
29
 10
30.1750
 20
-7.7000
 30
0.0000
 11
25.8750
 21
-7.7000
 31
0.0000
  0
LINE
  8
29
 10
25.8750
 20
-7.7000
 30
0.0000
 11
25.9000
 21
7.7900
 31
0.0000
  0
LINE
  8
29
 10
25.9000
 20
7.7900
 30
0.0000
 11
30.2000
 21
7.7900
 31
0.0000
  0
LINE
  8
29
 10
25.9490
 20
7.7900
 30
0.0000
 11
25.9490
 21
-7.7000
 31
0.0000
  0
LINE
  8
29
 10
26.0760
 20
7.7900
 30
0.0000
 11
26.0760
 21
-7.7000
 31
0.0000
  0
LINE
  8
29
 10
26.2030
 20
7.7900
 30
0.0000
 11
26.2030
 21
-7.7000
 31
0.0000
  0
LINE
  8
29
 10
26.3300
 20
7.7900
 30
0.0000
 11
26.3300
 21
-7.7000
 31
0.0000
  0
LINE
  8
29
 10
26.4570
 20
7.7900
 30
0.0000
 11
26.4570
 21
-7.7000
 31
0.0000
  0
LINE
  8
29
 10
26.5840
 20
7.7900
 30
0.0000
 11
26.5840
 21
-7.7000
 31
0.0000
  0
LINE
  8
29
 10
26.7110
 20
7.7900
 30
0.0000
 11
26.7110
 21
-7.7000
 31
0.0000
  0
LINE
  8
29
 10
26.8380
 20
7.7900
 30
0.0000
 11
26.8380
 21
-7.7000
 31
0.0000
  0
LINE
  8
29
 10
26.9650
 20
7.7900
 30
0.0000
 11
26.9650
 21
-7.7000
 31
0.0000
  0
LINE
  8
29
 10
27.0920
 20
7.7900
 30
0.0000
 11
27.0920
 21
-7.7000
 31
0.0000
  0
LINE
  8
29
 10
27.2190
 20
7.7900
 30
0.0000
 11
27.2190
 21
-7.7000
 31
0.0000
  0
LINE
  8
29
 10
27.3460
 20
7.7900
 30
0.0000
 11
27.3460
 21
-7.7000
 31
0.0000
  0
LINE
  8
29
 10
27.4730
 20
7.7900
 30
0.0000
 11
27.4730
 21
-7.7000
 31
0.0000
  0
LINE
  8
29
 10
27.6000
 20
7.7900
 30
0.0000
 11
27.6000
 21
-7.7000
 31
0.0000
  0
LINE
  8
29
 10
27.7270
 20
7.7900
 30
0.0000
 11
27.7270
 21
-7.7000
 31
0.0000
  0
LINE
  8
29
 10
27.8540
 20
7.7900
 30
0.0000
 11
27.8540
 21
-7.7000
 31
0.0000
  0
LINE
  8
29
 10
27.9810
 20
7.7900
 30
0.0000
 11
27.9810
 21
-7.7000
 31
0.0000
  0
LINE
  8
29
 10
28.1080
 20
7.7900
 30
0.0000
 11
28.1080
 21
-7.7000
 31
0.0000
  0
LINE
  8
29
 10
28.2350
 20
7.7900
 30
0.0000
 11
28.2350
 21
-7.7000
 31
0.0000
  0
LINE
  8
29
 10
28.3620
 20
7.7900
 30
0.0000
 11
28.3620
 21
-7.7000
 31
0.0000
  0
LINE
  8
29
 10
28.4890
 20
7.7900
 30
0.0000
 11
28.4890
 21
-7.7000
 31
0.0000
  0
LINE
  8
29
 10
28.6160
 20
7.7900
 30
0.0000
 11
28.6160
 21
-7.7000
 31
0.0000
  0
LINE
  8
29
 10
28.7430
 20
7.7900
 30
0.0000
 11
28.7430
 21
-7.7000
 31
0.0000
  0
LINE
  8
29
 10
28.8700
 20
7.7900
 30
0.0000
 11
28.8700
 21
-7.7000
 31
0.0000
  0
LINE
  8
29
 10
28.9970
 20
7.7900
 30
0.0000
 11
28.9970
 21
-7.7000
 31
0.0000
  0
LINE
  8
29
 10
29.1240
 20
7.7900
 30
0.0000
 11
29.1240
 21
-7.7000
 31
0.0000
  0
LINE
  8
29
 10
29.2510
 20
7.7900
 30
0.0000
 11
29.2510
 21
-7.7000
 31
0.0000
  0
LINE
  8
29
 10
29.3780
 20
7.7900
 30
0.0000
 11
29.3780
 21
-7.7000
 31
0.0000
  0
LINE
  8
29
 10
29.5050
 20
7.7900
 30
0.0000
 11
29.5050
 21
-7.7000
 31
0.0000
  0
LINE
  8
29
 10
29.6320
 20
7.7900
 30
0.0000
 11
29.6320
 21
-7.7000
 31
0.0000
  0
LINE
  8
29
 10
29.7590
 20
7.7900
 30
0.0000
 11
29.7590
 21
-7.7000
 31
0.0000
  0
LINE
  8
29
 10
29.8860
 20
7.7900
 30
0.0000
 11
29.8860
 21
-7.7000
 31
0.0000
  0
LINE
  8
29
 10
30.0130
 20
7.7900
 30
0.0000
 11
30.0130
 21
-7.7000
 31
0.0000
  0
LINE
  8
29
 10
30.1400
 20
7.7900
 30
0.0000
 11
30.1400
 21
-7.7000
 31
0.0000
  0
INSERT
  8
29
  2
RECT120000X584000R20
 10
27.7500
 20
6.4000
 30
0.0000
 41
1.0000
 42
1.0000
 43
1.0000
 50
270.0000
  0
INSERT
  8
29
  2
RECT120000X584000R20
 10
27.7500
 20
5.6000
 30
0.0000
 41
1.0000
 42
1.0000
 43
1.0000
 50
270.0000
  0
INSERT
  8
29
  2
RECT120000X584000R20
 10
27.7500
 20
4.8000
 30
0.0000
 41
1.0000
 42
1.0000
 43
1.0000
 50
270.0000
  0
INSERT
  8
29
  2
RECT120000X584000R20
 10
27.7500
 20
4.0000
 30
0.0000
 41
1.0000
 42
1.0000
 43
1.0000
 50
270.0000
  0
INSERT
  8
29
  2
RECT120000X584000R20
 10
27.7500
 20
3.2000
 30
0.0000
 41
1.0000
 42
1.0000
 43
1.0000
 50
270.0000
  0
INSERT
  8
29
  2
RECT120000X584000R20
 10
27.7500
 20
2.4000
 30
0.0000
 41
1.0000
 42
1.0000
 43
1.0000
 50
270.0000
  0
INSERT
  8
29
  2
RECT120000X584000R20
 10
27.7500
 20
1.6000
 30
0.0000
 41
1.0000
 42
1.0000
 43
1.0000
 50
270.0000
  0
INSERT
  8
29
  2
RECT120000X584000R20
 10
27.7500
 20
-2.4000
 30
0.0000
 41
1.0000
 42
1.0000
 43
1.0000
 50
270.0000
  0
INSERT
  8
29
  2
RECT120000X584000R20
 10
27.7500
 20
-3.2000
 30
0.0000
 41
1.0000
 42
1.0000
 43
1.0000
 50
270.0000
  0
INSERT
  8
29
  2
RECT120000X584000R20
 10
27.7500
 20
-4.0000
 30
0.0000
 41
1.0000
 42
1.0000
 43
1.0000
 50
270.0000
  0
INSERT
  8
29
  2
RECT120000X584000R20
 10
27.7500
 20
-4.8000
 30
0.0000
 41
1.0000
 42
1.0000
 43
1.0000
 50
270.0000
  0
INSERT
  8
29
  2
RECT120000X584000R20
 10
27.7500
 20
-5.6000
 30
0.0000
 41
1.0000
 42
1.0000
 43
1.0000
 50
270.0000
  0
INSERT
  8
29
  2
RECT120000X584000R20
 10
27.7500
 20
-6.4000
 30
0.0000
 41
1.0000
 42
1.0000
 43
1.0000
 50
270.0000
  0
INSERT
  8
29
  2
RECT
 10
-16.4000
 20
10.0100
 30
0.0000
 41
1.4500
 42
1.6500
 43
1.0000
 50
0.0000
  0
INSERT
  8
29
  2
RECT
 10
-13.5000
 20
10.0100
 30
0.0000
 41
3.4500
 42
1.6500
 43
1.0000
 50
0.0000
  0
INSERT
  8
29
  2
RECT
 10
-13.5000
 20
8.0100
 30
0.0000
 41
1.4500
 42
1.6500
 43
1.0000
 50
90.0000
  0
INSERT
  8
29
  2
RECT
 10
-13.5000
 20
-9.9900
 30
0.0000
 41
3.4500
 42
1.6500
 43
1.0000
 50
0.0000
  0
INSERT
  8
29
  2
RECT
 10
-16.4000
 20
-9.9900
 30
0.0000
 41
1.4500
 42
1.6500
 43
1.0000
 50
0.0000
  0
INSERT
  8
29
  2
RECT
 10
-13.5000
 20
-7.9900
 30
0.0000
 41
1.4500
 42
1.6500
 43
1.0000
 50
90.0000
  0
INSERT
  8
29
  2
RECT
 10
-19.4000
 20
8.0100
 30
0.0000
 41
1.4500
 42
1.6500
 43
1.0000
 50
0.0000
  0
INSERT
  8
29
  2
RECT
 10
-16.5000
 20
8.0100
 30
0.0000
 41
3.4500
 42
1.6500
 43
1.0000
 50
0.0000
  0
INSERT
  8
29
  2
RECT
 10
-16.5000
 20
6.0100
 30
0.0000
 41
1.4500
 42
1.6500
 43
1.0000
 50
90.0000
  0
INSERT
  8
29
  2
RECT
 10
-19.4000
 20
-0.9900
 30
0.0000
 41
1.4500
 42
1.6500
 43
1.0000
 50
0.0000
  0
INSERT
  8
29
  2
RECT
 10
-16.5000
 20
-0.9900
 30
0.0000
 41
3.4500
 42
1.6500
 43
1.0000
 50
0.0000
  0
INSERT
  8
29
  2
RECT
 10
-16.5000
 20
-2.9900
 30
0.0000
 41
1.4500
 42
1.6500
 43
1.0000
 50
90.0000
  0
INSERT
  8
29
  2
RECT
 10
-16.5000
 20
1.0100
 30
0.0000
 41
3.4500
 42
1.6500
 43
1.0000
 50
0.0000
  0
INSERT
  8
29
  2
RECT
 10
-19.4000
 20
1.0100
 30
0.0000
 41
1.4500
 42
1.6500
 43
1.0000
 50
0.0000
  0
INSERT
  8
29
  2
RECT
 10
-16.5000
 20
3.0100
 30
0.0000
 41
1.4500
 42
1.6500
 43
1.0000
 50
90.0000
  0
INSERT
  8
29
  2
RECT
 10
-2.5000
 20
-12.4900
 30
0.0000
 41
3.4500
 42
1.6500
 43
1.0000
 50
0.0000
  0
INSERT
  8
29
  2
RECT
 10
-5.4000
 20
-12.4900
 30
0.0000
 41
1.4500
 42
1.6500
 43
1.0000
 50
0.0000
  0
INSERT
  8
29
  2
RECT
 10
-2.5000
 20
-10.4900
 30
0.0000
 41
1.4500
 42
1.6500
 43
1.0000
 50
90.0000
  0
INSERT
  8
29
  2
RECT
 10
-5.4000
 20
12.5100
 30
0.0000
 41
1.4500
 42
1.6500
 43
1.0000
 50
0.0000
  0
INSERT
  8
29
  2
RECT
 10
-2.5000
 20
12.5100
 30
0.0000
 41
3.4500
 42
1.6500
 43
1.0000
 50
0.0000
  0
INSERT
  8
29
  2
RECT
 10
-2.5000
 20
10.5100
 30
0.0000
 41
1.4500
 42
1.6500
 43
1.0000
 50
90.0000
  0
INSERT
  8
29
  2
RECT
 10
-10.5000
 20
1.0100
 30
0.0000
 41
3.4500
 42
1.6500
 43
1.0000
 50
0.0000
  0
INSERT
  8
29
  2
RECT
 10
-13.4000
 20
1.0100
 30
0.0000
 41
1.4500
 42
1.6500
 43
1.0000
 50
0.0000
  0
INSERT
  8
29
  2
RECT
 10
-10.5000
 20
3.0100
 30
0.0000
 41
1.4500
 42
1.6500
 43
1.0000
 50
90.0000
  0
INSERT
  8
29
  2
RECT
 10
-16.5000
 20
-7.9900
 30
0.0000
 41
3.4500
 42
1.6500
 43
1.0000
 50
0.0000
  0
INSERT
  8
29
  2
RECT
 10
-19.4000
 20
-7.9900
 30
0.0000
 41
1.4500
 42
1.6500
 43
1.0000
 50
0.0000
  0
INSERT
  8
29
  2
RECT
 10
-16.5000
 20
-5.9900
 30
0.0000
 41
1.4500
 42
1.6500
 43
1.0000
 50
90.0000
  0
INSERT
  8
29
  2
RECT
 10
4.0000
 20
-12.4900
 30
0.0000
 41
3.4500
 42
1.6500
 43
1.0000
 50
0.0000
  0
INSERT
  8
29
  2
RECT
 10
1.1000
 20
-12.4900
 30
0.0000
 41
1.4500
 42
1.6500
 43
1.0000
 50
0.0000
  0
INSERT
  8
29
  2
RECT
 10
4.0000
 20
-10.4900
 30
0.0000
 41
1.4500
 42
1.6500
 43
1.0000
 50
90.0000
  0
INSERT
  8
29
  2
RECT
 10
1.1000
 20
12.5100
 30
0.0000
 41
1.4500
 42
1.6500
 43
1.0000
 50
0.0000
  0
INSERT
  8
29
  2
RECT
 10
4.0000
 20
12.5100
 30
0.0000
 41
3.4500
 42
1.6500
 43
1.0000
 50
0.0000
  0
INSERT
  8
29
  2
RECT
 10
4.0000
 20
10.5100
 30
0.0000
 41
1.4500
 42
1.6500
 43
1.0000
 50
90.0000
  0
INSERT
  8
29
  2
RECT
 10
-13.4000
 20
-0.9900
 30
0.0000
 41
1.4500
 42
1.6500
 43
1.0000
 50
0.0000
  0
INSERT
  8
29
  2
RECT
 10
-10.5000
 20
-0.9900
 30
0.0000
 41
3.4500
 42
1.6500
 43
1.0000
 50
0.0000
  0
INSERT
  8
29
  2
RECT
 10
-10.5000
 20
-2.9900
 30
0.0000
 41
1.4500
 42
1.6500
 43
1.0000
 50
90.0000
  0
INSERT
  8
29
  2
ROUNDP
 10
14.5850
 20
8.5150
 30
0.0000
 41
2.3344
 42
2.3344
 43
1.0000
 50
0.0000
  0
INSERT
  8
29
  2
ROUNDP
 10
19.6650
 20
8.5150
 30
0.0000
 41
2.3344
 42
2.3344
 43
1.0000
 50
0.0000
  0
INSERT
  8
29
  2
ROUNDP
 10
19.6650
 20
3.4350
 30
0.0000
 41
2.3344
 42
2.3344
 43
1.0000
 50
0.0000
  0
INSERT
  8
29
  2
ROUNDP
 10
14.5850
 20
3.4350
 30
0.0000
 41
2.3344
 42
2.3344
 43
1.0000
 50
0.0000
  0
INSERT
  8
29
  2
ROUNDP
 10
14.5850
 20
-3.4350
 30
0.0000
 41
2.3344
 42
2.3344
 43
1.0000
 50
0.0000
  0
INSERT
  8
29
  2
ROUNDP
 10
19.6650
 20
-3.4350
 30
0.0000
 41
2.3344
 42
2.3344
 43
1.0000
 50
0.0000
  0
INSERT
  8
29
  2
ROUNDP
 10
19.6650
 20
-8.5150
 30
0.0000
 41
2.3344
 42
2.3344
 43
1.0000
 50
0.0000
  0
INSERT
  8
29
  2
ROUNDP
 10
14.5850
 20
-8.5150
 30
0.0000
 41
2.3344
 42
2.3344
 43
1.0000
 50
0.0000
  0
INSERT
  8
29
  2
RECT
 10
11.6250
 20
7.5750
 30
0.0000
 41
1.6500
 42
1.4500
 43
1.0000
 50
180.0000
  0
INSERT
  8
29
  2
RECT
 10
12.1250
 20
5.9750
 30
0.0000
 41
2.6500
 42
0.7500
 43
1.0000
 50
0.0000
  0
INSERT
  8
29
  2
RECT
 10
11.6250
 20
-7.5750
 30
0.0000
 41
1.6500
 42
1.4500
 43
1.0000
 50
180.0000
  0
INSERT
  8
29
  2
RECT
 10
12.1250
 20
-5.9750
 30
0.0000
 41
2.6500
 42
0.7500
 43
1.0000
 50
0.0000
  0
INSERT
  8
29
  2
ROUNDV
 10
8.5000
 20
8.5000
 30
0.0000
 41
3.9500
 42
3.9500
 43
1.0000
 50
0.0000
  0
INSERT
  8
29
  2
ROUNDV
 10
14.1000
 20
14.7000
 30
0.0000
 41
4.1500
 42
4.1500
 43
1.0000
 50
0.0000
  0
INSERT
  8
29
  2
ROUNDV
 10
-8.5000
 20
8.5000
 30
0.0000
 41
3.9500
 42
3.9500
 43
1.0000
 50
0.0000
  0
INSERT
  8
29
  2
ROUNDV
 10
-8.5000
 20
-8.5000
 30
0.0000
 41
3.9500
 42
3.9500
 43
1.0000
 50
0.0000
  0
INSERT
  8
29
  2
ROUNDV
 10
8.5000
 20
-8.5000
 30
0.0000
 41
3.9500
 42
3.9500
 43
1.0000
 50
0.0000
  0
INSERT
  8
29
  2
ROUNDV
 10
-33.9000
 20
14.7000
 30
0.0000
 41
4.1500
 42
4.1500
 43
1.0000
 50
0.0000
  0
INSERT
  8
29
  2
ROUNDV
 10
-33.9000
 20
-14.7000
 30
0.0000
 41
4.1500
 42
4.1500
 43
1.0000
 50
0.0000
  0
INSERT
  8
29
  2
ROUNDV
 10
14.1000
 20
-14.7000
 30
0.0000
 41
4.1500
 42
4.1500
 43
1.0000
 50
0.0000
  0
INSERT
  8
29
  2
ROUNDV
 10
-17.4000
 20
-14.7000
 30
0.0000
 41
5.1660
 42
5.1660
 43
1.0000
 50
0.0000
  0
INSERT
  8
29
  2
ROUNDV
 10
-17.4000
 20
14.7000
 30
0.0000
 41
5.1660
 42
5.1660
 43
1.0000
 50
0.0000
  0
INSERT
  8
29
  2
ROUNDV
 10
-11.9000
 20
14.7000
 30
0.0000
 41
3.2660
 42
3.2660
 43
1.0000
 50
0.0000
  0
INSERT
  8
29
  2
ROUNDV
 10
-11.9000
 20
-14.7000
 30
0.0000
 41
3.2660
 42
3.2660
 43
1.0000
 50
0.0000
  0
INSERT
  8
29
  2
ROUNDV
 10
17.1250
 20
5.9750
 30
0.0000
 41
1.2564
 42
1.2564
 43
1.0000
 50
0.0000
  0
INSERT
  8
29
  2
ROUNDV
 10
17.1250
 20
-5.9750
 30
0.0000
 41
1.2564
 42
1.2564
 43
1.0000
 50
0.0000
  0
ENDSEC
  0
EOF
