  0
SECTION
  2
HEADER
  9
$ACADVER
  1
AC1009
  9
$FILLMODE
 70
0
  9
$EXTMIN
 10
-55.1250
 20
-33.9250
 30
0.0000
  9
$EXTMAX
 10
45.5119
 20
39.4400
 30
0.0000
  0
ENDSEC
  0
SECTION
  2
TABLES
  0
TABLE
  2
LTYPE
 70
1
  0
LTYPE
  2
CONTINUOUS
 70
64
  3
Solid line
 72
65
 73
0
 40
0
  0
ENDTAB
  0
TABLE
  2
LAYER
 70
255
  0
LAYER
  2
20
 70
64
 62
7
  6
CONTINUOUS
  0
LAYER
  2
110
 70
64
 62
5
  6
CONTINUOUS
  0
ENDTAB
  0
ENDSEC
  0
SECTION
  2
BLOCKS
  0
BLOCK
  8
0
  2
RECT
 70
64
 10
0.0000
 20
0.0000
 30
0.0000
  3
RECT
  0
SOLID
  8
0
 10
-0.5000
 20
-0.5000
 30
0.0000
 11
0.5000
 21
-0.5000
 31
0.0000
 12
-0.5000
 22
0.5000
 32
0.0000
 13
0.5000
 23
0.5000
 33
0.0000
  0
ENDBLK
  8
0
  0
BLOCK
  8
0
  2
PIE
 70
64
 10
0.0000
 20
0.0000
 30
0.0000
  3
PIE
  0
CIRCLE
  8
0
 10
0.0000
 20
0.0000
 30
0.0000
 40
0.5000
  0
ENDBLK
  8
0
  0
BLOCK
  8
0
  2
OCTAGONP
 70
64
 10
0.0000
 20
0.0000
 30
0.0000
  3
OCTAGONP
  0
POLYLINE
  8
0
 66
1
 10
0.0000
 20
0.0000
 30
0.0000
 40
0.0000
 41
0.0000
 70
1
  0
VERTEX
  8
0
 10
-0.5000
 20
-0.2071
 30
0.0000
  0
VERTEX
  8
0
 10
-0.5000
 20
0.2071
 30
0.0000
  0
VERTEX
  8
0
 10
-0.2071
 20
0.5000
 30
0.0000
  0
VERTEX
  8
0
 10
0.2071
 20
0.5000
 30
0.0000
  0
VERTEX
  8
0
 10
0.5000
 20
0.2071
 30
0.0000
  0
VERTEX
  8
0
 10
0.5000
 20
-0.2071
 30
0.0000
  0
VERTEX
  8
0
 10
0.2071
 20
-0.5000
 30
0.0000
  0
VERTEX
  8
0
 10
-0.2071
 20
-0.5000
 30
0.0000
  0
SEQEND
  8
0
  0
ENDBLK
  8
0
  0
BLOCK
  8
0
  2
SQUAREP
 70
64
 10
0.0000
 20
0.0000
 30
0.0000
  3
SQUAREP
  0
SOLID
  8
0
 10
-0.5000
 20
-0.5000
 30
0.0000
 11
0.5000
 21
-0.5000
 31
0.0000
 12
-0.5000
 22
0.5000
 32
0.0000
 13
0.5000
 23
0.5000
 33
0.0000
  0
ENDBLK
  8
0
  0
BLOCK
  8
0
  2
ROUNDP
 70
64
 10
0.0000
 20
0.0000
 30
0.0000
  3
ROUNDP
  0
CIRCLE
  8
0
 10
0.0000
 20
0.0000
 30
0.0000
 40
0.5000
  0
ENDBLK
  8
0
  0
BLOCK
  8
0
  2
ANNULUSP
 70
64
 10
0.0000
 20
0.0000
 30
0.0000
  3
ANNULUSP
  0
CIRCLE
  8
0
 10
0.0000
 20
0.0000
 30
0.0000
 40
0.5000
  0
ENDBLK
  8
0
  0
BLOCK
  8
0
  2
THERMALP
 70
64
 10
0.0000
 20
0.0000
 30
0.0000
  3
THERMALP
  0
POLYLINE
  8
0
 66
1
 10
0.0000
 20
0.0000
 30
0.0000
 40
0.0000
 41
0.0000
 70
1
  0
VERTEX
  8
0
 10
-0.2379
 20
0.4000
 30
0.0000
  0
VERTEX
  8
0
 10
0.2379
 20
0.4000
 30
0.0000
 42
1.0000
  0
VERTEX
  8
0
 10
0.2379
 20
0.5000
 30
0.0000
  0
VERTEX
  8
0
 10
-0.2379
 20
0.5000
 30
0.0000
 42
1.0000
  0
SEQEND
  8
0
  0
POLYLINE
  8
0
 66
1
 10
0.0000
 20
0.0000
 30
0.0000
 40
0.0000
 41
0.0000
 70
1
  0
VERTEX
  8
0
 10
0.4000
 20
0.2379
 30
0.0000
  0
VERTEX
  8
0
 10
0.4000
 20
-0.2379
 30
0.0000
 42
1.0000
  0
VERTEX
  8
0
 10
0.5000
 20
-0.2379
 30
0.0000
  0
VERTEX
  8
0
 10
0.5000
 20
0.2379
 30
0.0000
 42
1.0000
  0
SEQEND
  8
0
  0
POLYLINE
  8
0
 66
1
 10
0.0000
 20
0.0000
 30
0.0000
 40
0.0000
 41
0.0000
 70
1
  0
VERTEX
  8
0
 10
0.2379
 20
-0.4000
 30
0.0000
  0
VERTEX
  8
0
 10
-0.2379
 20
-0.4000
 30
0.0000
 42
1.0000
  0
VERTEX
  8
0
 10
-0.2379
 20
-0.5000
 30
0.0000
  0
VERTEX
  8
0
 10
0.2379
 20
-0.5000
 30
0.0000
 42
1.0000
  0
SEQEND
  8
0
  0
POLYLINE
  8
0
 66
1
 10
0.0000
 20
0.0000
 30
0.0000
 40
0.0000
 41
0.0000
 70
1
  0
VERTEX
  8
0
 10
-0.4000
 20
-0.2379
 30
0.0000
  0
VERTEX
  8
0
 10
-0.4000
 20
0.2379
 30
0.0000
 42
1.0000
  0
VERTEX
  8
0
 10
-0.5000
 20
0.2379
 30
0.0000
  0
VERTEX
  8
0
 10
-0.5000
 20
-0.2379
 30
0.0000
 42
1.0000
  0
SEQEND
  8
0
  0
ENDBLK
  8
0
  0
BLOCK
  8
0
  2
OCTAGONV
 70
64
 10
0.0000
 20
0.0000
 30
0.0000
  3
OCTAGONV
  0
POLYLINE
  8
0
 66
1
 10
0.0000
 20
0.0000
 30
0.0000
 40
0.0000
 41
0.0000
 70
1
  0
VERTEX
  8
0
 10
-0.5000
 20
-0.2071
 30
0.0000
  0
VERTEX
  8
0
 10
-0.5000
 20
0.2071
 30
0.0000
  0
VERTEX
  8
0
 10
-0.2071
 20
0.5000
 30
0.0000
  0
VERTEX
  8
0
 10
0.2071
 20
0.5000
 30
0.0000
  0
VERTEX
  8
0
 10
0.5000
 20
0.2071
 30
0.0000
  0
VERTEX
  8
0
 10
0.5000
 20
-0.2071
 30
0.0000
  0
VERTEX
  8
0
 10
0.2071
 20
-0.5000
 30
0.0000
  0
VERTEX
  8
0
 10
-0.2071
 20
-0.5000
 30
0.0000
  0
SEQEND
  8
0
  0
ENDBLK
  8
0
  0
BLOCK
  8
0
  2
SQUAREV
 70
64
 10
0.0000
 20
0.0000
 30
0.0000
  3
SQUAREV
  0
SOLID
  8
0
 10
-0.5000
 20
-0.5000
 30
0.0000
 11
0.5000
 21
-0.5000
 31
0.0000
 12
-0.5000
 22
0.5000
 32
0.0000
 13
0.5000
 23
0.5000
 33
0.0000
  0
ENDBLK
  8
0
  0
BLOCK
  8
0
  2
ROUNDV
 70
64
 10
0.0000
 20
0.0000
 30
0.0000
  3
ROUNDV
  0
CIRCLE
  8
0
 10
0.0000
 20
0.0000
 30
0.0000
 40
0.5000
  0
ENDBLK
  8
0
  0
BLOCK
  8
0
  2
ANNULUSV
 70
64
 10
0.0000
 20
0.0000
 30
0.0000
  3
ANNULUSV
  0
CIRCLE
  8
0
 10
0.0000
 20
0.0000
 30
0.0000
 40
0.5000
  0
ENDBLK
  8
0
  0
BLOCK
  8
0
  2
THERMALV
 70
64
 10
0.0000
 20
0.0000
 30
0.0000
  3
THERMALV
  0
POLYLINE
  8
0
 66
1
 10
0.0000
 20
0.0000
 30
0.0000
 40
0.0000
 41
0.0000
 70
1
  0
VERTEX
  8
0
 10
-0.2379
 20
0.4000
 30
0.0000
  0
VERTEX
  8
0
 10
0.2379
 20
0.4000
 30
0.0000
 42
1.0000
  0
VERTEX
  8
0
 10
0.2379
 20
0.5000
 30
0.0000
  0
VERTEX
  8
0
 10
-0.2379
 20
0.5000
 30
0.0000
 42
1.0000
  0
SEQEND
  8
0
  0
POLYLINE
  8
0
 66
1
 10
0.0000
 20
0.0000
 30
0.0000
 40
0.0000
 41
0.0000
 70
1
  0
VERTEX
  8
0
 10
0.4000
 20
0.2379
 30
0.0000
  0
VERTEX
  8
0
 10
0.4000
 20
-0.2379
 30
0.0000
 42
1.0000
  0
VERTEX
  8
0
 10
0.5000
 20
-0.2379
 30
0.0000
  0
VERTEX
  8
0
 10
0.5000
 20
0.2379
 30
0.0000
 42
1.0000
  0
SEQEND
  8
0
  0
POLYLINE
  8
0
 66
1
 10
0.0000
 20
0.0000
 30
0.0000
 40
0.0000
 41
0.0000
 70
1
  0
VERTEX
  8
0
 10
0.2379
 20
-0.4000
 30
0.0000
  0
VERTEX
  8
0
 10
-0.2379
 20
-0.4000
 30
0.0000
 42
1.0000
  0
VERTEX
  8
0
 10
-0.2379
 20
-0.5000
 30
0.0000
  0
VERTEX
  8
0
 10
0.2379
 20
-0.5000
 30
0.0000
 42
1.0000
  0
SEQEND
  8
0
  0
POLYLINE
  8
0
 66
1
 10
0.0000
 20
0.0000
 30
0.0000
 40
0.0000
 41
0.0000
 70
1
  0
VERTEX
  8
0
 10
-0.4000
 20
-0.2379
 30
0.0000
  0
VERTEX
  8
0
 10
-0.4000
 20
0.2379
 30
0.0000
 42
1.0000
  0
VERTEX
  8
0
 10
-0.5000
 20
0.2379
 30
0.0000
  0
VERTEX
  8
0
 10
-0.5000
 20
-0.2379
 30
0.0000
 42
1.0000
  0
SEQEND
  8
0
  0
ENDBLK
  8
0
  0
ENDSEC
  0
SECTION
  2
ENTITIES
  0
LINE
  8
20
 10
-38.4000
 20
18.0000
 30
0.0000
 11
-38.4000
 21
10.8000
 31
0.0000
  0
LINE
  8
20
 10
-38.4000
 20
10.8000
 30
0.0000
 11
-36.2000
 21
10.8000
 31
0.0000
  0
LINE
  8
20
 10
-36.2000
 20
10.8000
 30
0.0000
 11
-36.2000
 21
-10.8000
 31
0.0000
  0
LINE
  8
20
 10
-36.2000
 20
-10.8000
 30
0.0000
 11
-38.4000
 21
-10.8000
 31
0.0000
  0
LINE
  8
20
 10
-38.4000
 20
-10.8000
 30
0.0000
 11
-38.4000
 21
-18.0000
 31
0.0000
  0
LINE
  8
20
 10
-38.4000
 20
-18.0000
 30
0.0000
 11
23.0000
 21
-18.0000
 31
0.0000
  0
LINE
  8
20
 10
-38.4000
 20
18.0000
 30
0.0000
 11
23.0000
 21
18.0000
 31
0.0000
  0
LINE
  8
20
 10
23.0000
 20
18.0000
 30
0.0000
 11
23.0000
 21
8.4000
 31
0.0000
  0
ARC
  8
20
 10
24.0000
 20
8.4000
 30
0.0000
 40
1.0000
 50
180.0000
 51
270.0000
  0
LINE
  8
20
 10
24.0000
 20
7.4000
 30
0.0000
 11
30.0000
 21
7.4000
 31
0.0000
  0
LINE
  8
20
 10
30.0000
 20
-7.4000
 30
0.0000
 11
24.0000
 21
-7.4000
 31
0.0000
  0
ARC
  8
20
 10
24.0000
 20
-8.4000
 30
0.0000
 40
1.0000
 50
90.0000
 51
180.0000
  0
LINE
  8
20
 10
23.0000
 20
-8.4000
 30
0.0000
 11
23.0000
 21
-18.0000
 31
0.0000
  0
POLYLINE
  8
20
 66
1
 10
0.0000
 20
0.0000
 30
0.0000
 40
0.0000
 41
0.0000
 70
1
  0
VERTEX
  8
20
 10
-11.9000
 20
-13.7000
 30
0.0000
  0
VERTEX
  8
20
 10
-17.4000
 20
-13.7000
 30
0.0000
 42
1.0000
  0
VERTEX
  8
20
 10
-17.4000
 20
-15.7000
 30
0.0000
  0
VERTEX
  8
20
 10
-11.9000
 20
-15.7000
 30
0.0000
 42
1.0000
  0
SEQEND
  8
0
  0
POLYLINE
  8
20
 66
1
 10
0.0000
 20
0.0000
 30
0.0000
 40
0.0000
 41
0.0000
 70
1
  0
VERTEX
  8
20
 10
-11.9000
 20
15.7500
 30
0.0000
  0
VERTEX
  8
20
 10
-17.4000
 20
15.7500
 30
0.0000
 42
1.0000
  0
VERTEX
  8
20
 10
-17.4000
 20
13.6500
 30
0.0000
  0
VERTEX
  8
20
 10
-11.9000
 20
13.6500
 30
0.0000
 42
1.0000
  0
SEQEND
  8
0
  0
LINE
  8
20
 10
30.0000
 20
7.4000
 30
0.0000
 11
30.0000
 21
0.8000
 31
0.0000
  0
LINE
  8
20
 10
30.0000
 20
0.8000
 30
0.0000
 11
24.0000
 21
0.8000
 31
0.0000
  0
ARC
  8
20
 10
24.0000
 20
-0.2000
 30
0.0000
 40
1.0000
 50
90.0000
 51
180.0000
  0
LINE
  8
20
 10
23.0000
 20
-0.2000
 30
0.0000
 11
23.0000
 21
-0.6000
 31
0.0000
  0
ARC
  8
20
 10
24.0000
 20
-0.6000
 30
0.0000
 40
1.0000
 50
180.0000
 51
270.0000
  0
LINE
  8
20
 10
24.0000
 20
-1.6000
 30
0.0000
 11
30.0000
 21
-1.6000
 31
0.0000
  0
LINE
  8
20
 10
30.0000
 20
-1.6000
 30
0.0000
 11
30.0000
 21
-7.4000
 31
0.0000
  0
POLYLINE
  8
110
 66
1
 10
0.0000
 20
0.0000
 30
0.0000
 40
0.0000
 41
0.0000
 70
1
  0
VERTEX
  8
110
 10
-33.8950
 20
-19.5010
 30
0.0000
  0
VERTEX
  8
110
 10
-33.8950
 20
-14.7010
 30
0.0000
 42
1.0000
  0
VERTEX
  8
110
 10
-33.9050
 20
-14.7010
 30
0.0000
  0
VERTEX
  8
110
 10
-33.9050
 20
-19.5010
 30
0.0000
 42
1.0000
  0
SEQEND
  8
0
  0
POLYLINE
  8
110
 66
1
 10
0.0000
 20
0.0000
 30
0.0000
 40
0.0000
 41
0.0000
 70
1
  0
VERTEX
  8
110
 10
-33.8950
 20
-14.7010
 30
0.0000
  0
VERTEX
  8
110
 10
-33.8950
 20
-9.9010
 30
0.0000
 42
1.0000
  0
VERTEX
  8
110
 10
-33.9050
 20
-9.9010
 30
0.0000
  0
VERTEX
  8
110
 10
-33.9050
 20
-14.7010
 30
0.0000
 42
1.0000
  0
SEQEND
  8
0
  0
POLYLINE
  8
110
 66
1
 10
0.0000
 20
0.0000
 30
0.0000
 40
0.0000
 41
0.0000
 70
1
  0
VERTEX
  8
110
 10
-33.8950
 20
9.8990
 30
0.0000
  0
VERTEX
  8
110
 10
-33.8950
 20
14.6990
 30
0.0000
 42
1.0000
  0
VERTEX
  8
110
 10
-33.9050
 20
14.6990
 30
0.0000
  0
VERTEX
  8
110
 10
-33.9050
 20
9.8990
 30
0.0000
 42
1.0000
  0
SEQEND
  8
0
  0
POLYLINE
  8
110
 66
1
 10
0.0000
 20
0.0000
 30
0.0000
 40
0.0000
 41
0.0000
 70
1
  0
VERTEX
  8
110
 10
-33.8950
 20
14.6990
 30
0.0000
  0
VERTEX
  8
110
 10
-33.8950
 20
19.4990
 30
0.0000
 42
1.0000
  0
VERTEX
  8
110
 10
-33.9050
 20
19.4990
 30
0.0000
  0
VERTEX
  8
110
 10
-33.9050
 20
14.6990
 30
0.0000
 42
1.0000
  0
SEQEND
  8
0
  0
POLYLINE
  8
110
 66
1
 10
0.0000
 20
0.0000
 30
0.0000
 40
0.0000
 41
0.0000
 70
1
  0
VERTEX
  8
110
 10
-33.9000
 20
-14.7060
 30
0.0000
  0
VERTEX
  8
110
 10
-29.1000
 20
-14.7060
 30
0.0000
 42
1.0000
  0
VERTEX
  8
110
 10
-29.1000
 20
-14.6960
 30
0.0000
  0
VERTEX
  8
110
 10
-33.9000
 20
-14.6960
 30
0.0000
 42
1.0000
  0
SEQEND
  8
0
  0
POLYLINE
  8
110
 66
1
 10
0.0000
 20
0.0000
 30
0.0000
 40
0.0000
 41
0.0000
 70
1
  0
VERTEX
  8
110
 10
-21.4001
 20
-14.7060
 30
0.0000
  0
VERTEX
  8
110
 10
-17.4000
 20
-14.7060
 30
0.0000
 42
1.0000
  0
VERTEX
  8
110
 10
-17.4000
 20
-14.6960
 30
0.0000
  0
VERTEX
  8
110
 10
-21.4001
 20
-14.6960
 30
0.0000
 42
1.0000
  0
SEQEND
  8
0
  0
POLYLINE
  8
110
 66
1
 10
0.0000
 20
0.0000
 30
0.0000
 40
0.0000
 41
0.0000
 70
1
  0
VERTEX
  8
110
 10
-17.4000
 20
-14.7060
 30
0.0000
  0
VERTEX
  8
110
 10
-11.9000
 20
-14.7060
 30
0.0000
 42
1.0000
  0
VERTEX
  8
110
 10
-11.9000
 20
-14.6960
 30
0.0000
  0
VERTEX
  8
110
 10
-17.4000
 20
-14.6960
 30
0.0000
 42
1.0000
  0
SEQEND
  8
0
  0
POLYLINE
  8
110
 66
1
 10
0.0000
 20
0.0000
 30
0.0000
 40
0.0000
 41
0.0000
 70
1
  0
VERTEX
  8
110
 10
-11.9000
 20
-14.7060
 30
0.0000
  0
VERTEX
  8
110
 10
-7.8999
 20
-14.7060
 30
0.0000
 42
1.0000
  0
VERTEX
  8
110
 10
-7.8999
 20
-14.6960
 30
0.0000
  0
VERTEX
  8
110
 10
-11.9000
 20
-14.6960
 30
0.0000
 42
1.0000
  0
SEQEND
  8
0
  0
POLYLINE
  8
110
 66
1
 10
0.0000
 20
0.0000
 30
0.0000
 40
0.0000
 41
0.0000
 70
1
  0
VERTEX
  8
110
 10
9.3000
 20
-14.7060
 30
0.0000
  0
VERTEX
  8
110
 10
14.1000
 20
-14.7060
 30
0.0000
 42
1.0000
  0
VERTEX
  8
110
 10
14.1000
 20
-14.6960
 30
0.0000
  0
VERTEX
  8
110
 10
9.3000
 20
-14.6960
 30
0.0000
 42
1.0000
  0
SEQEND
  8
0
  0
POLYLINE
  8
110
 66
1
 10
0.0000
 20
0.0000
 30
0.0000
 40
0.0000
 41
0.0000
 70
1
  0
VERTEX
  8
110
 10
14.1000
 20
-14.7060
 30
0.0000
  0
VERTEX
  8
110
 10
18.9000
 20
-14.7060
 30
0.0000
 42
1.0000
  0
VERTEX
  8
110
 10
18.9000
 20
-14.6960
 30
0.0000
  0
VERTEX
  8
110
 10
14.1000
 20
-14.6960
 30
0.0000
 42
1.0000
  0
SEQEND
  8
0
  0
POLYLINE
  8
110
 66
1
 10
0.0000
 20
0.0000
 30
0.0000
 40
0.0000
 41
0.0000
 70
1
  0
VERTEX
  8
110
 10
-33.9000
 20
-14.6960
 30
0.0000
  0
VERTEX
  8
110
 10
-38.7000
 20
-14.6960
 30
0.0000
 42
1.0000
  0
VERTEX
  8
110
 10
-38.7000
 20
-14.7060
 30
0.0000
  0
VERTEX
  8
110
 10
-33.9000
 20
-14.7060
 30
0.0000
 42
1.0000
  0
SEQEND
  8
0
  0
POLYLINE
  8
110
 66
1
 10
0.0000
 20
0.0000
 30
0.0000
 40
0.0000
 41
0.0000
 70
1
  0
VERTEX
  8
110
 10
-17.4050
 20
-14.7010
 30
0.0000
  0
VERTEX
  8
110
 10
-17.4050
 20
-18.7011
 30
0.0000
 42
1.0000
  0
VERTEX
  8
110
 10
-17.3950
 20
-18.7011
 30
0.0000
  0
VERTEX
  8
110
 10
-17.3950
 20
-14.7010
 30
0.0000
 42
1.0000
  0
SEQEND
  8
0
  0
POLYLINE
  8
110
 66
1
 10
0.0000
 20
0.0000
 30
0.0000
 40
0.0000
 41
0.0000
 70
1
  0
VERTEX
  8
110
 10
-17.3950
 20
-14.7010
 30
0.0000
  0
VERTEX
  8
110
 10
-17.3950
 20
-10.7009
 30
0.0000
 42
1.0000
  0
VERTEX
  8
110
 10
-17.4050
 20
-10.7009
 30
0.0000
  0
VERTEX
  8
110
 10
-17.4050
 20
-14.7010
 30
0.0000
 42
1.0000
  0
SEQEND
  8
0
  0
POLYLINE
  8
110
 66
1
 10
0.0000
 20
0.0000
 30
0.0000
 40
0.0000
 41
0.0000
 70
1
  0
VERTEX
  8
110
 10
-17.3950
 20
10.6989
 30
0.0000
  0
VERTEX
  8
110
 10
-17.3950
 20
14.6990
 30
0.0000
 42
1.0000
  0
VERTEX
  8
110
 10
-17.4050
 20
14.6990
 30
0.0000
  0
VERTEX
  8
110
 10
-17.4050
 20
10.6989
 30
0.0000
 42
1.0000
  0
SEQEND
  8
0
  0
POLYLINE
  8
110
 66
1
 10
0.0000
 20
0.0000
 30
0.0000
 40
0.0000
 41
0.0000
 70
1
  0
VERTEX
  8
110
 10
-17.3950
 20
14.6990
 30
0.0000
  0
VERTEX
  8
110
 10
-17.3950
 20
18.6991
 30
0.0000
 42
1.0000
  0
VERTEX
  8
110
 10
-17.4050
 20
18.6991
 30
0.0000
  0
VERTEX
  8
110
 10
-17.4050
 20
14.6990
 30
0.0000
 42
1.0000
  0
SEQEND
  8
0
  0
POLYLINE
  8
110
 66
1
 10
0.0000
 20
0.0000
 30
0.0000
 40
0.0000
 41
0.0000
 70
1
  0
VERTEX
  8
110
 10
3.7000
 20
-8.5060
 30
0.0000
  0
VERTEX
  8
110
 10
8.5000
 20
-8.5060
 30
0.0000
 42
1.0000
  0
VERTEX
  8
110
 10
8.5000
 20
-8.4960
 30
0.0000
  0
VERTEX
  8
110
 10
3.7000
 20
-8.4960
 30
0.0000
 42
1.0000
  0
SEQEND
  8
0
  0
POLYLINE
  8
110
 66
1
 10
0.0000
 20
0.0000
 30
0.0000
 40
0.0000
 41
0.0000
 70
1
  0
VERTEX
  8
110
 10
8.5000
 20
-8.5060
 30
0.0000
  0
VERTEX
  8
110
 10
13.3000
 20
-8.5060
 30
0.0000
 42
1.0000
  0
VERTEX
  8
110
 10
13.3000
 20
-8.4960
 30
0.0000
  0
VERTEX
  8
110
 10
8.5000
 20
-8.4960
 30
0.0000
 42
1.0000
  0
SEQEND
  8
0
  0
POLYLINE
  8
110
 66
1
 10
0.0000
 20
0.0000
 30
0.0000
 40
0.0000
 41
0.0000
 70
1
  0
VERTEX
  8
110
 10
-3.7000
 20
-8.4960
 30
0.0000
  0
VERTEX
  8
110
 10
-8.5000
 20
-8.4960
 30
0.0000
 42
1.0000
  0
VERTEX
  8
110
 10
-8.5000
 20
-8.5060
 30
0.0000
  0
VERTEX
  8
110
 10
-3.7000
 20
-8.5060
 30
0.0000
 42
1.0000
  0
SEQEND
  8
0
  0
POLYLINE
  8
110
 66
1
 10
0.0000
 20
0.0000
 30
0.0000
 40
0.0000
 41
0.0000
 70
1
  0
VERTEX
  8
110
 10
-8.5000
 20
-8.4960
 30
0.0000
  0
VERTEX
  8
110
 10
-13.3000
 20
-8.4960
 30
0.0000
 42
1.0000
  0
VERTEX
  8
110
 10
-13.3000
 20
-8.5060
 30
0.0000
  0
VERTEX
  8
110
 10
-8.5000
 20
-8.5060
 30
0.0000
 42
1.0000
  0
SEQEND
  8
0
  0
POLYLINE
  8
110
 66
1
 10
0.0000
 20
0.0000
 30
0.0000
 40
0.0000
 41
0.0000
 70
1
  0
VERTEX
  8
110
 10
-11.9050
 20
-14.7010
 30
0.0000
  0
VERTEX
  8
110
 10
-11.9050
 20
-18.7011
 30
0.0000
 42
1.0000
  0
VERTEX
  8
110
 10
-11.8950
 20
-18.7011
 30
0.0000
  0
VERTEX
  8
110
 10
-11.8950
 20
-14.7010
 30
0.0000
 42
1.0000
  0
SEQEND
  8
0
  0
POLYLINE
  8
110
 66
1
 10
0.0000
 20
0.0000
 30
0.0000
 40
0.0000
 41
0.0000
 70
1
  0
VERTEX
  8
110
 10
-11.8950
 20
-14.7010
 30
0.0000
  0
VERTEX
  8
110
 10
-11.8950
 20
-10.7009
 30
0.0000
 42
1.0000
  0
VERTEX
  8
110
 10
-11.9050
 20
-10.7009
 30
0.0000
  0
VERTEX
  8
110
 10
-11.9050
 20
-14.7010
 30
0.0000
 42
1.0000
  0
SEQEND
  8
0
  0
POLYLINE
  8
110
 66
1
 10
0.0000
 20
0.0000
 30
0.0000
 40
0.0000
 41
0.0000
 70
1
  0
VERTEX
  8
110
 10
-11.8950
 20
10.6989
 30
0.0000
  0
VERTEX
  8
110
 10
-11.8950
 20
14.6990
 30
0.0000
 42
1.0000
  0
VERTEX
  8
110
 10
-11.9050
 20
14.6990
 30
0.0000
  0
VERTEX
  8
110
 10
-11.9050
 20
10.6989
 30
0.0000
 42
1.0000
  0
SEQEND
  8
0
  0
POLYLINE
  8
110
 66
1
 10
0.0000
 20
0.0000
 30
0.0000
 40
0.0000
 41
0.0000
 70
1
  0
VERTEX
  8
110
 10
-8.5050
 20
-8.5010
 30
0.0000
  0
VERTEX
  8
110
 10
-8.5050
 20
-13.3010
 30
0.0000
 42
1.0000
  0
VERTEX
  8
110
 10
-8.4950
 20
-13.3010
 30
0.0000
  0
VERTEX
  8
110
 10
-8.4950
 20
-8.5010
 30
0.0000
 42
1.0000
  0
SEQEND
  8
0
  0
POLYLINE
  8
110
 66
1
 10
0.0000
 20
0.0000
 30
0.0000
 40
0.0000
 41
0.0000
 70
1
  0
VERTEX
  8
110
 10
-8.4950
 20
-8.5010
 30
0.0000
  0
VERTEX
  8
110
 10
-8.4950
 20
-3.7010
 30
0.0000
 42
1.0000
  0
VERTEX
  8
110
 10
-8.5050
 20
-3.7010
 30
0.0000
  0
VERTEX
  8
110
 10
-8.5050
 20
-8.5010
 30
0.0000
 42
1.0000
  0
SEQEND
  8
0
  0
POLYLINE
  8
110
 66
1
 10
0.0000
 20
0.0000
 30
0.0000
 40
0.0000
 41
0.0000
 70
1
  0
VERTEX
  8
110
 10
-8.4950
 20
3.6990
 30
0.0000
  0
VERTEX
  8
110
 10
-8.4950
 20
8.4990
 30
0.0000
 42
1.0000
  0
VERTEX
  8
110
 10
-8.5050
 20
8.4990
 30
0.0000
  0
VERTEX
  8
110
 10
-8.5050
 20
3.6990
 30
0.0000
 42
1.0000
  0
SEQEND
  8
0
  0
POLYLINE
  8
110
 66
1
 10
0.0000
 20
0.0000
 30
0.0000
 40
0.0000
 41
0.0000
 70
1
  0
VERTEX
  8
110
 10
-8.4950
 20
8.4990
 30
0.0000
  0
VERTEX
  8
110
 10
-8.4950
 20
13.2990
 30
0.0000
 42
1.0000
  0
VERTEX
  8
110
 10
-8.5050
 20
13.2990
 30
0.0000
  0
VERTEX
  8
110
 10
-8.5050
 20
8.4990
 30
0.0000
 42
1.0000
  0
SEQEND
  8
0
  0
POLYLINE
  8
110
 66
1
 10
0.0000
 20
0.0000
 30
0.0000
 40
0.0000
 41
0.0000
 70
1
  0
VERTEX
  8
110
 10
-8.5000
 20
8.4940
 30
0.0000
  0
VERTEX
  8
110
 10
-3.7000
 20
8.4940
 30
0.0000
 42
1.0000
  0
VERTEX
  8
110
 10
-3.7000
 20
8.5040
 30
0.0000
  0
VERTEX
  8
110
 10
-8.5000
 20
8.5040
 30
0.0000
 42
1.0000
  0
SEQEND
  8
0
  0
POLYLINE
  8
110
 66
1
 10
0.0000
 20
0.0000
 30
0.0000
 40
0.0000
 41
0.0000
 70
1
  0
VERTEX
  8
110
 10
3.7000
 20
8.4940
 30
0.0000
  0
VERTEX
  8
110
 10
8.5000
 20
8.4940
 30
0.0000
 42
1.0000
  0
VERTEX
  8
110
 10
8.5000
 20
8.5040
 30
0.0000
  0
VERTEX
  8
110
 10
3.7000
 20
8.5040
 30
0.0000
 42
1.0000
  0
SEQEND
  8
0
  0
POLYLINE
  8
110
 66
1
 10
0.0000
 20
0.0000
 30
0.0000
 40
0.0000
 41
0.0000
 70
1
  0
VERTEX
  8
110
 10
8.5000
 20
8.4940
 30
0.0000
  0
VERTEX
  8
110
 10
13.3000
 20
8.4940
 30
0.0000
 42
1.0000
  0
VERTEX
  8
110
 10
13.3000
 20
8.5040
 30
0.0000
  0
VERTEX
  8
110
 10
8.5000
 20
8.5040
 30
0.0000
 42
1.0000
  0
SEQEND
  8
0
  0
POLYLINE
  8
110
 66
1
 10
0.0000
 20
0.0000
 30
0.0000
 40
0.0000
 41
0.0000
 70
1
  0
VERTEX
  8
110
 10
-8.5000
 20
8.5040
 30
0.0000
  0
VERTEX
  8
110
 10
-13.3000
 20
8.5040
 30
0.0000
 42
1.0000
  0
VERTEX
  8
110
 10
-13.3000
 20
8.4940
 30
0.0000
  0
VERTEX
  8
110
 10
-8.5000
 20
8.4940
 30
0.0000
 42
1.0000
  0
SEQEND
  8
0
  0
POLYLINE
  8
110
 66
1
 10
0.0000
 20
0.0000
 30
0.0000
 40
0.0000
 41
0.0000
 70
1
  0
VERTEX
  8
110
 10
8.4950
 20
8.4990
 30
0.0000
  0
VERTEX
  8
110
 10
8.4950
 20
3.6990
 30
0.0000
 42
1.0000
  0
VERTEX
  8
110
 10
8.5050
 20
3.6990
 30
0.0000
  0
VERTEX
  8
110
 10
8.5050
 20
8.4990
 30
0.0000
 42
1.0000
  0
SEQEND
  8
0
  0
POLYLINE
  8
110
 66
1
 10
0.0000
 20
0.0000
 30
0.0000
 40
0.0000
 41
0.0000
 70
1
  0
VERTEX
  8
110
 10
8.4950
 20
-8.5010
 30
0.0000
  0
VERTEX
  8
110
 10
8.4950
 20
-13.3010
 30
0.0000
 42
1.0000
  0
VERTEX
  8
110
 10
8.5050
 20
-13.3010
 30
0.0000
  0
VERTEX
  8
110
 10
8.5050
 20
-8.5010
 30
0.0000
 42
1.0000
  0
SEQEND
  8
0
  0
POLYLINE
  8
110
 66
1
 10
0.0000
 20
0.0000
 30
0.0000
 40
0.0000
 41
0.0000
 70
1
  0
VERTEX
  8
110
 10
8.5050
 20
-8.5010
 30
0.0000
  0
VERTEX
  8
110
 10
8.5050
 20
-3.7010
 30
0.0000
 42
1.0000
  0
VERTEX
  8
110
 10
8.4950
 20
-3.7010
 30
0.0000
  0
VERTEX
  8
110
 10
8.4950
 20
-8.5010
 30
0.0000
 42
1.0000
  0
SEQEND
  8
0
  0
POLYLINE
  8
110
 66
1
 10
0.0000
 20
0.0000
 30
0.0000
 40
0.0000
 41
0.0000
 70
1
  0
VERTEX
  8
110
 10
8.5050
 20
8.4990
 30
0.0000
  0
VERTEX
  8
110
 10
8.5050
 20
13.2990
 30
0.0000
 42
1.0000
  0
VERTEX
  8
110
 10
8.4950
 20
13.2990
 30
0.0000
  0
VERTEX
  8
110
 10
8.4950
 20
8.4990
 30
0.0000
 42
1.0000
  0
SEQEND
  8
0
  0
POLYLINE
  8
110
 66
1
 10
0.0000
 20
0.0000
 30
0.0000
 40
0.0000
 41
0.0000
 70
1
  0
VERTEX
  8
110
 10
-33.9000
 20
14.6940
 30
0.0000
  0
VERTEX
  8
110
 10
-29.1000
 20
14.6940
 30
0.0000
 42
1.0000
  0
VERTEX
  8
110
 10
-29.1000
 20
14.7040
 30
0.0000
  0
VERTEX
  8
110
 10
-33.9000
 20
14.7040
 30
0.0000
 42
1.0000
  0
SEQEND
  8
0
  0
POLYLINE
  8
110
 66
1
 10
0.0000
 20
0.0000
 30
0.0000
 40
0.0000
 41
0.0000
 70
1
  0
VERTEX
  8
110
 10
-17.4000
 20
14.6940
 30
0.0000
  0
VERTEX
  8
110
 10
-11.9000
 20
14.6940
 30
0.0000
 42
1.0000
  0
VERTEX
  8
110
 10
-11.9000
 20
14.7040
 30
0.0000
  0
VERTEX
  8
110
 10
-17.4000
 20
14.7040
 30
0.0000
 42
1.0000
  0
SEQEND
  8
0
  0
POLYLINE
  8
110
 66
1
 10
0.0000
 20
0.0000
 30
0.0000
 40
0.0000
 41
0.0000
 70
1
  0
VERTEX
  8
110
 10
-11.9000
 20
14.6940
 30
0.0000
  0
VERTEX
  8
110
 10
-7.8999
 20
14.6940
 30
0.0000
 42
1.0000
  0
VERTEX
  8
110
 10
-7.8999
 20
14.7040
 30
0.0000
  0
VERTEX
  8
110
 10
-11.9000
 20
14.7040
 30
0.0000
 42
1.0000
  0
SEQEND
  8
0
  0
POLYLINE
  8
110
 66
1
 10
0.0000
 20
0.0000
 30
0.0000
 40
0.0000
 41
0.0000
 70
1
  0
VERTEX
  8
110
 10
9.3000
 20
14.6940
 30
0.0000
  0
VERTEX
  8
110
 10
14.1000
 20
14.6940
 30
0.0000
 42
1.0000
  0
VERTEX
  8
110
 10
14.1000
 20
14.7040
 30
0.0000
  0
VERTEX
  8
110
 10
9.3000
 20
14.7040
 30
0.0000
 42
1.0000
  0
SEQEND
  8
0
  0
POLYLINE
  8
110
 66
1
 10
0.0000
 20
0.0000
 30
0.0000
 40
0.0000
 41
0.0000
 70
1
  0
VERTEX
  8
110
 10
14.1000
 20
14.6940
 30
0.0000
  0
VERTEX
  8
110
 10
18.9000
 20
14.6940
 30
0.0000
 42
1.0000
  0
VERTEX
  8
110
 10
18.9000
 20
14.7040
 30
0.0000
  0
VERTEX
  8
110
 10
14.1000
 20
14.7040
 30
0.0000
 42
1.0000
  0
SEQEND
  8
0
  0
POLYLINE
  8
110
 66
1
 10
0.0000
 20
0.0000
 30
0.0000
 40
0.0000
 41
0.0000
 70
1
  0
VERTEX
  8
110
 10
-17.4000
 20
14.7040
 30
0.0000
  0
VERTEX
  8
110
 10
-21.4001
 20
14.7040
 30
0.0000
 42
1.0000
  0
VERTEX
  8
110
 10
-21.4001
 20
14.6940
 30
0.0000
  0
VERTEX
  8
110
 10
-17.4000
 20
14.6940
 30
0.0000
 42
1.0000
  0
SEQEND
  8
0
  0
POLYLINE
  8
110
 66
1
 10
0.0000
 20
0.0000
 30
0.0000
 40
0.0000
 41
0.0000
 70
1
  0
VERTEX
  8
110
 10
-33.9000
 20
14.7040
 30
0.0000
  0
VERTEX
  8
110
 10
-38.7000
 20
14.7040
 30
0.0000
 42
1.0000
  0
VERTEX
  8
110
 10
-38.7000
 20
14.6940
 30
0.0000
  0
VERTEX
  8
110
 10
-33.9000
 20
14.6940
 30
0.0000
 42
1.0000
  0
SEQEND
  8
0
  0
POLYLINE
  8
110
 66
1
 10
0.0000
 20
0.0000
 30
0.0000
 40
0.0000
 41
0.0000
 70
1
  0
VERTEX
  8
110
 10
14.0950
 20
14.6990
 30
0.0000
  0
VERTEX
  8
110
 10
14.0950
 20
9.8990
 30
0.0000
 42
1.0000
  0
VERTEX
  8
110
 10
14.1050
 20
9.8990
 30
0.0000
  0
VERTEX
  8
110
 10
14.1050
 20
14.6990
 30
0.0000
 42
1.0000
  0
SEQEND
  8
0
  0
POLYLINE
  8
110
 66
1
 10
0.0000
 20
0.0000
 30
0.0000
 40
0.0000
 41
0.0000
 70
1
  0
VERTEX
  8
110
 10
14.0950
 20
-14.7010
 30
0.0000
  0
VERTEX
  8
110
 10
14.0950
 20
-19.5010
 30
0.0000
 42
1.0000
  0
VERTEX
  8
110
 10
14.1050
 20
-19.5010
 30
0.0000
  0
VERTEX
  8
110
 10
14.1050
 20
-14.7010
 30
0.0000
 42
1.0000
  0
SEQEND
  8
0
  0
POLYLINE
  8
110
 66
1
 10
0.0000
 20
0.0000
 30
0.0000
 40
0.0000
 41
0.0000
 70
1
  0
VERTEX
  8
110
 10
14.1050
 20
-14.7010
 30
0.0000
  0
VERTEX
  8
110
 10
14.1050
 20
-9.9010
 30
0.0000
 42
1.0000
  0
VERTEX
  8
110
 10
14.0950
 20
-9.9010
 30
0.0000
  0
VERTEX
  8
110
 10
14.0950
 20
-14.7010
 30
0.0000
 42
1.0000
  0
SEQEND
  8
0
  0
POLYLINE
  8
110
 66
1
 10
0.0000
 20
0.0000
 30
0.0000
 40
0.0000
 41
0.0000
 70
1
  0
VERTEX
  8
110
 10
14.1050
 20
14.6990
 30
0.0000
  0
VERTEX
  8
110
 10
14.1050
 20
19.4990
 30
0.0000
 42
1.0000
  0
VERTEX
  8
110
 10
14.0950
 20
19.4990
 30
0.0000
  0
VERTEX
  8
110
 10
14.0950
 20
14.6990
 30
0.0000
 42
1.0000
  0
SEQEND
  8
0
  0
POLYLINE
  8
110
 66
1
 10
0.0000
 20
0.0000
 30
0.0000
 40
0.0000
 41
0.0000
 70
1
  0
VERTEX
  8
110
 10
-34.1575
 20
-15.6621
 30
0.0000
 42
1.0000
  0
VERTEX
  8
110
 10
-34.1601
 20
-15.6717
 30
0.0000
 42
3.7321
  0
VERTEX
  8
110
 10
-34.8707
 20
-14.9611
 30
0.0000
 42
1.0000
  0
VERTEX
  8
110
 10
-34.8611
 20
-14.9585
 30
0.0000
 42
-3.7321
  0
SEQEND
  8
0
  0
POLYLINE
  8
110
 66
1
 10
0.0000
 20
0.0000
 30
0.0000
 40
0.0000
 41
0.0000
 70
1
  0
VERTEX
  8
110
 10
-34.1575
 20
13.7379
 30
0.0000
 42
1.0000
  0
VERTEX
  8
110
 10
-34.1601
 20
13.7283
 30
0.0000
 42
3.7321
  0
VERTEX
  8
110
 10
-34.8707
 20
14.4389
 30
0.0000
 42
1.0000
  0
VERTEX
  8
110
 10
-34.8611
 20
14.4415
 30
0.0000
 42
-3.7321
  0
SEQEND
  8
0
  0
POLYLINE
  8
110
 66
1
 10
0.0000
 20
0.0000
 30
0.0000
 40
0.0000
 41
0.0000
 70
1
  0
VERTEX
  8
110
 10
13.8425
 20
-15.6621
 30
0.0000
 42
1.0000
  0
VERTEX
  8
110
 10
13.8399
 20
-15.6717
 30
0.0000
 42
3.7321
  0
VERTEX
  8
110
 10
13.1293
 20
-14.9611
 30
0.0000
 42
1.0000
  0
VERTEX
  8
110
 10
13.1389
 20
-14.9585
 30
0.0000
 42
-3.7321
  0
SEQEND
  8
0
  0
POLYLINE
  8
110
 66
1
 10
0.0000
 20
0.0000
 30
0.0000
 40
0.0000
 41
0.0000
 70
1
  0
VERTEX
  8
110
 10
8.2425
 20
-9.4621
 30
0.0000
 42
1.0000
  0
VERTEX
  8
110
 10
8.2399
 20
-9.4717
 30
0.0000
 42
3.7321
  0
VERTEX
  8
110
 10
7.5293
 20
-8.7611
 30
0.0000
 42
1.0000
  0
VERTEX
  8
110
 10
7.5389
 20
-8.7585
 30
0.0000
 42
-3.7321
  0
SEQEND
  8
0
  0
POLYLINE
  8
110
 66
1
 10
0.0000
 20
0.0000
 30
0.0000
 40
0.0000
 41
0.0000
 70
1
  0
VERTEX
  8
110
 10
-8.7575
 20
-9.4621
 30
0.0000
 42
1.0000
  0
VERTEX
  8
110
 10
-8.7601
 20
-9.4717
 30
0.0000
 42
3.7321
  0
VERTEX
  8
110
 10
-9.4707
 20
-8.7611
 30
0.0000
 42
1.0000
  0
VERTEX
  8
110
 10
-9.4611
 20
-8.7585
 30
0.0000
 42
-3.7321
  0
SEQEND
  8
0
  0
POLYLINE
  8
110
 66
1
 10
0.0000
 20
0.0000
 30
0.0000
 40
0.0000
 41
0.0000
 70
1
  0
VERTEX
  8
110
 10
13.8425
 20
13.7379
 30
0.0000
 42
1.0000
  0
VERTEX
  8
110
 10
13.8399
 20
13.7283
 30
0.0000
 42
3.7321
  0
VERTEX
  8
110
 10
13.1293
 20
14.4389
 30
0.0000
 42
1.0000
  0
VERTEX
  8
110
 10
13.1389
 20
14.4415
 30
0.0000
 42
-3.7321
  0
SEQEND
  8
0
  0
POLYLINE
  8
110
 66
1
 10
0.0000
 20
0.0000
 30
0.0000
 40
0.0000
 41
0.0000
 70
1
  0
VERTEX
  8
110
 10
8.2425
 20
7.5379
 30
0.0000
 42
1.0000
  0
VERTEX
  8
110
 10
8.2399
 20
7.5283
 30
0.0000
 42
3.7321
  0
VERTEX
  8
110
 10
7.5293
 20
8.2389
 30
0.0000
 42
1.0000
  0
VERTEX
  8
110
 10
7.5389
 20
8.2415
 30
0.0000
 42
-3.7321
  0
SEQEND
  8
0
  0
POLYLINE
  8
110
 66
1
 10
0.0000
 20
0.0000
 30
0.0000
 40
0.0000
 41
0.0000
 70
1
  0
VERTEX
  8
110
 10
-8.7575
 20
7.5379
 30
0.0000
 42
1.0000
  0
VERTEX
  8
110
 10
-8.7601
 20
7.5283
 30
0.0000
 42
3.7321
  0
VERTEX
  8
110
 10
-9.4707
 20
8.2389
 30
0.0000
 42
1.0000
  0
VERTEX
  8
110
 10
-9.4611
 20
8.2415
 30
0.0000
 42
-3.7321
  0
SEQEND
  8
0
  0
CIRCLE
  8
110
 10
-33.9000
 20
-14.7010
 30
0.0000
 40
0.7950
  0
CIRCLE
  8
110
 10
-33.9000
 20
-14.7010
 30
0.0000
 40
0.8050
  0
CIRCLE
  8
110
 10
-33.9000
 20
14.6990
 30
0.0000
 40
0.7950
  0
CIRCLE
  8
110
 10
-33.9000
 20
14.6990
 30
0.0000
 40
0.8050
  0
CIRCLE
  8
110
 10
14.1000
 20
-14.7010
 30
0.0000
 40
0.7950
  0
CIRCLE
  8
110
 10
14.1000
 20
-14.7010
 30
0.0000
 40
0.8050
  0
CIRCLE
  8
110
 10
8.5000
 20
-8.5010
 30
0.0000
 40
0.7950
  0
CIRCLE
  8
110
 10
8.5000
 20
-8.5010
 30
0.0000
 40
0.8050
  0
CIRCLE
  8
110
 10
-8.5000
 20
-8.5010
 30
0.0000
 40
0.7950
  0
CIRCLE
  8
110
 10
-8.5000
 20
-8.5010
 30
0.0000
 40
0.8050
  0
CIRCLE
  8
110
 10
14.1000
 20
14.6990
 30
0.0000
 40
0.7950
  0
CIRCLE
  8
110
 10
14.1000
 20
14.6990
 30
0.0000
 40
0.8050
  0
CIRCLE
  8
110
 10
8.5000
 20
8.4990
 30
0.0000
 40
0.7950
  0
CIRCLE
  8
110
 10
8.5000
 20
8.4990
 30
0.0000
 40
0.8050
  0
CIRCLE
  8
110
 10
-8.5000
 20
8.4990
 30
0.0000
 40
0.7950
  0
CIRCLE
  8
110
 10
-8.5000
 20
8.4990
 30
0.0000
 40
0.8050
  0
ENDSEC
  0
EOF
